<svg xmlns="http://www.w3.org/2000/svg" xmlns:xlink="http://www.w3.org/1999/xlink" version="1.1" x="0px" y="0px" viewBox="0 0 100 100" enable-background="new 0 0 100 100" xml:space="preserve"><g><path fill="#0A3966" d="M93.492,60.44H63.37l15.061-37.013L93.492,60.44z M36.63,53.66H6.508l15.061-37.013L36.63,53.66z    M95.763,60.44l-15.72-38.634c1.365-0.565,2.4-1.822,2.593-3.395c0.285-2.322-1.366-4.437-3.69-4.722L52.37,10.428V7.631   c0-1.756-1.423-3.179-3.178-3.179c-1.755,0-3.178,1.423-3.178,3.179v2.016L22.166,6.719c-2.325-0.286-4.437,1.366-4.723,3.689   c-0.237,1.936,0.872,3.722,2.591,4.431L4.237,53.66H2.5c0,7.929,8.538,14.355,19.069,14.355c10.532,0,19.069-6.427,19.069-14.355   h-1.737L23.333,15.4l22.681,2.785v67.84H30.971c-2.341,0-4.238,1.897-4.238,4.237S28.63,94.5,30.971,94.5h38.139   c2.34,0,4.236-1.897,4.236-4.237s-1.896-4.237-4.236-4.237H52.37v-67.06l24.387,2.994L61.1,60.44h-1.738   c0,7.928,8.539,14.354,19.069,14.354c10.532,0,19.069-6.427,19.069-14.354H95.763z"/></g></svg>