<svg xmlns="http://www.w3.org/2000/svg" viewBox="0 0 110.08 81.63"><defs><style>.a{fill:none;}.b{fill:#e41b1b;}</style></defs><g transform="translate(52.413 2.101)"><g transform="translate(23.923 24.489)"><g transform="translate(0.202 0.202)"><circle class="a" cx="3.395" cy="3.395" r="3.395"/></g><g transform="translate(0 0)"><path class="b" d="M-1578.5-771.007a3.6,3.6,0,0,1-3.6-3.6,3.6,3.6,0,0,1,3.6-3.6,3.6,3.6,0,0,1,3.6,3.6A3.553,3.553,0,0,1-1578.5-771.007Zm0-5.415a1.811,1.811,0,0,0-1.818,1.818,1.811,1.811,0,0,0,1.818,1.819,1.811,1.811,0,0,0,1.819-1.819A1.811,1.811,0,0,0-1578.5-776.422Z" transform="translate(1582.1 778.2)"/></g></g><g transform="translate(14.642 17.956)"><path class="b" d="M176.1,59.237a1.424,1.424,0,0,1-.849-.283l-8.81-6.91A1.354,1.354,0,0,1,168.1,49.9l8.81,6.91a1.387,1.387,0,0,1,.242,1.9A1.231,1.231,0,0,1,176.1,59.237Z" transform="translate(-165.932 -49.632)"/></g><g transform="translate(26.186)"><path class="b" d="M195.834,12.918a1.345,1.345,0,0,1-1.334-1.334V6.534a1.334,1.334,0,1,1,2.667,0v5.011A1.305,1.305,0,0,1,195.834,12.918Z" transform="translate(-194.5 -5.2)"/></g><g transform="translate(29.237 14.164)"><path class="b" d="M203.4,54.171a1.351,1.351,0,0,1-.768-2.465l16.892-11.234a1.339,1.339,0,1,1,1.5,2.223L204.131,53.929A1.055,1.055,0,0,1,203.4,54.171Z" transform="translate(-202.05 -40.25)"/></g><g transform="translate(0 26.752)"><path class="b" d="M135.438,74.067h-4.4a1.334,1.334,0,0,1,0-2.667h4.4a1.345,1.345,0,0,1,1.334,1.334A1.32,1.32,0,0,1,135.438,74.067Z" transform="translate(-129.7 -71.4)"/></g><g transform="translate(47.766 26.752)"><path class="b" d="M253.638,74.067h-4.4a1.334,1.334,0,1,1,0-2.667h4.4a1.345,1.345,0,0,1,1.334,1.334A1.319,1.319,0,0,1,253.638,74.067Z" transform="translate(-247.9 -71.4)"/></g></g><path class="b" d="M30.489,99.821H12.91a1.01,1.01,0,0,1,0-2.021H30.489a1,1,0,0,1,1.01,1.01A1.026,1.026,0,0,1,30.489,99.821Z" transform="translate(-7.091 -58.278)"/><path class="b" d="M19.114,114.321H1.01a1.01,1.01,0,1,1,0-2.021h18.1a1.01,1.01,0,1,1,0,2.021Z" transform="translate(0 -66.918)"/><path class="b" d="M28.414,128.821H14.31a1.01,1.01,0,0,1,0-2.021h14.1a1,1,0,0,1,1.01,1.01A1.026,1.026,0,0,1,28.414,128.821Z" transform="translate(-7.925 -75.559)"/><path class="a" d="M98.222,168.178A5.279,5.279,0,0,0,94.14,166.4a8,8,0,0,0-5.94,2.869H98.868A4.316,4.316,0,0,0,98.222,168.178Z" transform="translate(-52.558 -99.156)"/><path class="a" d="M73.284,118.96a6.789,6.789,0,0,1,5.294,2.344,6.542,6.542,0,0,1,1.172,2.142H99.713L105.694,89.5H59.181L53.2,123.445H65.4A9.691,9.691,0,0,1,73.284,118.96Z" transform="translate(-31.701 -53.332)"/><path class="a" d="M83.763,179.621a5.526,5.526,0,0,0,1.051,4.486,5.279,5.279,0,0,0,4.081,1.778,8.169,8.169,0,0,0,7.678-6.547,6.347,6.347,0,0,0,.081-1.738h-12.2A6.633,6.633,0,0,0,83.763,179.621Z" transform="translate(-49.858 -105.83)"/><g transform="translate(19.71)"><path class="a" d="M133.2,99.441a28.911,28.911,0,0,0,7.678,7.678,31.189,31.189,0,0,0,4.849,2.627c.485.2.97.4,1.5.566L150.9,89.5H129a25.7,25.7,0,0,0,1.616,5.092A27.934,27.934,0,0,0,133.2,99.441Z" transform="translate(-96.58 -53.332)"/><path class="b" d="M153.287,0A30.19,30.19,0,0,0,123.1,30.187a31.84,31.84,0,0,0,.323,4.4h1.7a26.61,26.61,0,0,1-.323-4.4,30.033,30.033,0,0,1,.566-5.738,27.206,27.206,0,0,1,1.657-5.334,31.188,31.188,0,0,1,2.627-4.849,28.911,28.911,0,0,1,7.678-7.678,31.188,31.188,0,0,1,4.849-2.627A28.078,28.078,0,0,1,147.508,2.3a27.1,27.1,0,0,1,5.738-.566,30.033,30.033,0,0,1,5.738.566,27.2,27.2,0,0,1,5.334,1.657,31.186,31.186,0,0,1,4.849,2.627,28.911,28.911,0,0,1,7.678,7.678,31.187,31.187,0,0,1,2.627,4.849,28.075,28.075,0,0,1,1.657,5.334,27.1,27.1,0,0,1,.566,5.738,30.033,30.033,0,0,1-.566,5.738,27.2,27.2,0,0,1-1.657,5.334,31.187,31.187,0,0,1-2.627,4.849,28.653,28.653,0,0,1-3.475,4.2A14.963,14.963,0,0,1,172.2,51.4l.727,1.616A30.147,30.147,0,0,0,153.287,0Z" transform="translate(-93.064 0)"/><path class="b" d="M179.3,144.482l.283-1.657c-.727-.162-1.414-.323-2.1-.525L177.2,144C177.887,144.159,178.574,144.321,179.3,144.482Z" transform="translate(-125.302 -84.795)"/><path class="b" d="M104.673,85.783a.727.727,0,0,0-.606-.283H55.856a.822.822,0,0,0-.808.687l-6.264,35.562a.871.871,0,0,0,.162.647.727.727,0,0,0,.606.283H61.837a12.315,12.315,0,0,1,.849-1.616H50.563l5.981-33.945H103.1l-3.677,20.812-.283,1.7L97.116,121.1H77.153a7.167,7.167,0,0,1,.323,1.616H97.763a.822.822,0,0,0,.808-.687l2.1-11.921.283-1.7,3.879-21.984A.972.972,0,0,0,104.673,85.783Z" transform="translate(-48.774 -50.949)"/></g><path class="b" d="M94.292,164.744A6.718,6.718,0,0,0,89,162.4a9.819,9.819,0,0,0-7.921,4.486,12.316,12.316,0,0,0-.849,1.616,8.623,8.623,0,0,0-.525,1.738,6.879,6.879,0,0,0,1.414,5.779,6.718,6.718,0,0,0,5.294,2.344,9.769,9.769,0,0,0,9.254-7.88,6.841,6.841,0,0,0,.081-2.021,7.166,7.166,0,0,0-.323-1.616A5.935,5.935,0,0,0,94.292,164.744Zm-.162,5.536a8.169,8.169,0,0,1-7.678,6.547,5.279,5.279,0,0,1-4.081-1.778,5.349,5.349,0,0,1-1.051-4.486,7.028,7.028,0,0,1,.687-2.021,7.108,7.108,0,0,1,1.091-1.616,8,8,0,0,1,5.94-2.869,5.279,5.279,0,0,1,4.082,1.778,4.486,4.486,0,0,1,.687,1.091,5.317,5.317,0,0,1,.445,1.616A8.779,8.779,0,0,1,94.13,170.28Z" transform="translate(-47.415 -96.773)"/><path class="b" d="M209.769,125.676H191.624a1,1,0,0,1-.768-.364.867.867,0,0,1-.2-.808l1.98-11.356a1.006,1.006,0,0,1,1.01-.849h11.113a1.021,1.021,0,0,1,.929.606l5.051,11.355a1.031,1.031,0,0,1-.081.97A1.073,1.073,0,0,1,209.769,125.676Zm-16.932-2.021h15.4l-4.162-9.335h-9.577Z" transform="translate(-113.591 -66.918)"/><path class="b" d="M92.565,180.15a3.713,3.713,0,0,1-2.95-1.334,3.922,3.922,0,0,1-.808-3.233,5.265,5.265,0,0,1,5.051-4.284,3.713,3.713,0,0,1,2.95,1.334,3.922,3.922,0,0,1,.808,3.233A5.334,5.334,0,0,1,92.565,180.15Zm1.253-7.234a3.691,3.691,0,0,0-3.435,2.95,2.34,2.34,0,0,0,.445,1.9,2.171,2.171,0,0,0,1.738.727A3.691,3.691,0,0,0,96,175.543a2.34,2.34,0,0,0-.445-1.9A2.307,2.307,0,0,0,93.817,172.916Z" transform="translate(-52.881 -102.076)"/><path class="a" d="M198.156,168.178a5.279,5.279,0,0,0-4.081-1.778,7.845,7.845,0,0,0-5.375,2.3h9.82A2.053,2.053,0,0,0,198.156,168.178Z" transform="translate(-112.444 -99.156)"/><path class="a" d="M182.963,179.323a5.526,5.526,0,0,0,1.051,4.486,5.278,5.278,0,0,0,4.081,1.778,8.169,8.169,0,0,0,7.678-6.547,6.249,6.249,0,0,0,.04-1.94H183.73A7.261,7.261,0,0,0,182.963,179.323Z" transform="translate(-108.97 -105.532)"/><path class="a" d="M190.9,130.579a6.789,6.789,0,0,1,5.294,2.344,6.373,6.373,0,0,1,.97,1.576H206.5l2.142-12.123L202.616,109H187.786L183.3,134.5h.121A9.557,9.557,0,0,1,190.9,130.579Z" transform="translate(-109.227 -64.952)"/><path class="a" d="M179.549,48.671a31.186,31.186,0,0,0,2.627-4.849,28.079,28.079,0,0,0,1.657-5.334,27.1,27.1,0,0,0,.566-5.738,30.033,30.033,0,0,0-.566-5.738,27.2,27.2,0,0,0-1.657-5.334,31.186,31.186,0,0,0-2.627-4.849,28.911,28.911,0,0,0-7.678-7.678,31.188,31.188,0,0,0-4.849-2.627,28.078,28.078,0,0,0-5.334-1.657,27.1,27.1,0,0,0-5.738-.566,30.032,30.032,0,0,0-5.738.566,27.2,27.2,0,0,0-5.334,1.657,31.187,31.187,0,0,0-4.849,2.627,28.912,28.912,0,0,0-7.678,7.678,31.184,31.184,0,0,0-2.627,4.849,28.075,28.075,0,0,0-1.657,5.334,27.1,27.1,0,0,0-.566,5.738,30.032,30.032,0,0,0,.566,5.738,27.2,27.2,0,0,0,1.657,5.334,31.184,31.184,0,0,0,2.627,4.849,28.912,28.912,0,0,0,7.678,7.678,31.187,31.187,0,0,0,4.849,2.627,29.074,29.074,0,0,0,5.132,1.616l2.667-15.154a1.006,1.006,0,0,1,1.01-.849h16.366a1.021,1.021,0,0,1,.929.606l3.96,8.81c.4-.364.808-.727,1.172-1.091A34.29,34.29,0,0,0,179.549,48.671Z" transform="translate(-75.976 -2.562)"/><path class="a" d="M197.758,123.023a27.2,27.2,0,0,0,5.334-1.657,31.188,31.188,0,0,0,4.849-2.627c.485-.323.97-.687,1.414-1.051L205.436,109H190.605L188.1,123.305a32.053,32.053,0,0,0,3.96.283A29.934,29.934,0,0,0,197.758,123.023Z" transform="translate(-112.087 -64.952)"/><path class="b" d="M205.428,114.932l-.727-1.616-3.96-8.81a1.021,1.021,0,0,0-.929-.606H183.444a1.038,1.038,0,0,0-1.01.849L179.767,119.9l-.283,1.657-1.9,10.709a1.113,1.113,0,0,0,.2.808,1,1,0,0,0,.768.364h.162a9.1,9.1,0,0,1,1.172-2.021h-.121l1.7-9.5.283-1.657,2.505-14.305h14.831l3.92,8.688.727,1.576,1.374,3.112-2.142,12.123h-9.335a6.768,6.768,0,0,1,.525,2.021h9.658a1.038,1.038,0,0,0,1.01-.849l2.344-13.255a1.059,1.059,0,0,0-.081-.606Z" transform="translate(-105.815 -61.913)"/><path class="b" d="M193.492,164.744A6.718,6.718,0,0,0,188.2,162.4a9.7,9.7,0,0,0-7.516,3.92,9.827,9.827,0,0,0-1.778,3.96,6.879,6.879,0,0,0,1.414,5.779,6.718,6.718,0,0,0,5.294,2.344,9.769,9.769,0,0,0,9.254-7.88,8.261,8.261,0,0,0,.081-2.223,6.77,6.77,0,0,0-.525-2.021A5.574,5.574,0,0,0,193.492,164.744Zm-.162,5.536a8.169,8.169,0,0,1-7.678,6.547,5.279,5.279,0,0,1-4.082-1.778,5.349,5.349,0,0,1-1.051-4.486,7.259,7.259,0,0,1,.768-2.223,9.209,9.209,0,0,1,1.536-2.021,7.845,7.845,0,0,1,5.375-2.3,5.279,5.279,0,0,1,4.082,1.778,4.1,4.1,0,0,1,.364.525,5.061,5.061,0,0,1,.727,2.021A6.3,6.3,0,0,1,193.33,170.28Z" transform="translate(-106.527 -96.773)"/><path class="b" d="M191.765,180.15a3.713,3.713,0,0,1-2.95-1.334,3.959,3.959,0,0,1-.808-3.233,5.265,5.265,0,0,1,5.051-4.284,3.713,3.713,0,0,1,2.95,1.334,3.959,3.959,0,0,1,.808,3.233A5.334,5.334,0,0,1,191.765,180.15Zm1.253-7.234a3.691,3.691,0,0,0-3.435,2.95,2.34,2.34,0,0,0,.445,1.9,2.171,2.171,0,0,0,1.738.727,3.691,3.691,0,0,0,3.435-2.95,2.34,2.34,0,0,0-.445-1.9A2.307,2.307,0,0,0,193.017,172.916Z" transform="translate(-111.993 -102.076)"/><path class="b" d="M74.384,115.321l.242-1.455H71.555l-.242,1.455H70.1l.445-2.546h.525c.2-.323.4-.606.566-.889a8.649,8.649,0,0,0,.4-.889,8.782,8.782,0,0,0,.283-.97,8.071,8.071,0,0,0,.2-1.051l.283-1.576h3.556l-.929,5.375h.606l-.445,2.546H74.384Zm.525-6.829H73.9l-.2,1.051c-.081.4-.162.808-.242,1.132s-.2.606-.283.889a3.583,3.583,0,0,1-.323.687c-.121.2-.242.4-.364.566h1.657Z" transform="translate(-41.772 -63.999)"/><path class="b" d="M90.843,110.354c-.04.283-.121.566-.162.849a5.907,5.907,0,0,1-.2.808,3.582,3.582,0,0,1-.323.687,2.127,2.127,0,0,1-.485.566,1.863,1.863,0,0,1-.687.364,3.241,3.241,0,0,1-.929.121,1.926,1.926,0,0,1-1.172-.323,1.877,1.877,0,0,1-.525-.808,3.161,3.161,0,0,1-.081-1.091c.04-.4.081-.808.162-1.212.04-.283.121-.525.162-.808a2.438,2.438,0,0,1,.242-.768,3.582,3.582,0,0,1,.323-.687,2.126,2.126,0,0,1,.485-.566,1.862,1.862,0,0,1,.687-.364,3.051,3.051,0,0,1,.929-.121,2.361,2.361,0,0,1,.849.121,1.026,1.026,0,0,1,.525.364,1.248,1.248,0,0,1,.283.566,3.559,3.559,0,0,1,.081.687,5.154,5.154,0,0,1-.04.768Zm-1.374.121c.081-.4.121-.727.162-1.051a5.982,5.982,0,0,0,.04-.808.866.866,0,0,0-.162-.485.5.5,0,0,0-.445-.162.812.812,0,0,0-.525.162,1.453,1.453,0,0,0-.323.485,5.858,5.858,0,0,0-.242.768c-.081.283-.121.647-.2,1.01s-.121.727-.162,1.01a5.72,5.72,0,0,0-.04.768,1.364,1.364,0,0,0,.162.485.5.5,0,0,0,.445.162.644.644,0,0,0,.485-.162,1.267,1.267,0,0,0,.323-.445,7.631,7.631,0,0,0,.242-.727A5.3,5.3,0,0,0,89.469,110.475Z" transform="translate(-51.402 -63.76)"/><path class="b" d="M102.762,112.213a3.822,3.822,0,0,1-.445.808,1.87,1.87,0,0,1-.727.525,2.984,2.984,0,0,1-1.132.2,1.691,1.691,0,0,1-1.172-.323,1.4,1.4,0,0,1-.485-.768,3.215,3.215,0,0,1-.04-1.091c.04-.4.121-.768.162-1.172.081-.4.162-.808.242-1.172a4.409,4.409,0,0,1,.445-1.091,2.568,2.568,0,0,1,.808-.808A2.4,2.4,0,0,1,101.67,107a3.05,3.05,0,0,1,.929.121,1.205,1.205,0,0,1,.566.4,1.731,1.731,0,0,1,.242.687,3.663,3.663,0,0,1-.04.929v.081h-1.253v-.081a1.9,1.9,0,0,0,0-.97c-.081-.2-.242-.283-.525-.283a.776.776,0,0,0-.485.162.978.978,0,0,0-.323.445,5.856,5.856,0,0,0-.242.768,6.615,6.615,0,0,0-.2,1.091c-.081.4-.121.727-.162,1.051a5.724,5.724,0,0,0-.04.768,1.363,1.363,0,0,0,.162.485.5.5,0,0,0,.445.162.794.794,0,0,0,.687-.364,3.228,3.228,0,0,0,.4-1.293h1.253C102.964,111.566,102.883,111.93,102.762,112.213Z" transform="translate(-58.835 -63.76)"/><path class="b" d="M114.248,108.591l-.929,5.375h-1.293l.929-5.375H111.5l.2-1.091h4.162l-.2,1.091Z" transform="translate(-66.442 -64.058)"/><path class="b" d="M123.377,113.866l-.081-1.374H121.64l-.566,1.374H119.7l2.829-6.466h1.657l.525,6.466Zm-.2-5.294L122,111.441H123.3Z" transform="translate(-71.328 -63.999)"/><path class="b" d="M138.026,112.047a2.551,2.551,0,0,1-.323.889,1.519,1.519,0,0,1-.566.566,2.274,2.274,0,0,1-.727.283,6.054,6.054,0,0,1-.889.081H133.5l1.132-6.466h2.061a4.477,4.477,0,0,1,.768.081,1.248,1.248,0,0,1,.566.283,1.03,1.03,0,0,1,.323.485,1.23,1.23,0,0,1,0,.768,2.414,2.414,0,0,1-.4.929,1.34,1.34,0,0,1-.849.525C137.864,110.633,138.188,111.158,138.026,112.047Zm-1.334-.121c.081-.364.04-.647-.121-.768a1.249,1.249,0,0,0-.768-.2h-.525l-.364,1.94h.525a1.515,1.515,0,0,0,.445-.04,1.435,1.435,0,0,0,.364-.162.543.543,0,0,0,.242-.283A.887.887,0,0,0,136.692,111.926Zm.323-2.708a.8.8,0,0,0,0-.445.414.414,0,0,0-.2-.242,2.782,2.782,0,0,0-.323-.121c-.121,0-.283-.04-.445-.04h-.323l-.283,1.7h.727a.564.564,0,0,0,.364-.121c.121-.04.2-.162.283-.242A.887.887,0,0,0,137.016,109.218Z" transform="translate(-79.551 -63.999)"/><path class="b" d="M148.871,113.866l-.849-2.627-.606.687-.323,1.94H145.8l1.132-6.466h1.293l-.485,2.667,2.142-2.667H151.3l-2.263,2.748,1.334,3.677h-1.5Z" transform="translate(-86.881 -63.999)"/><path class="b" d="M160.377,113.866l-.081-1.374H158.64l-.566,1.374H156.7l2.829-6.466h1.657l.525,6.466Zm-.2-5.294L159,111.441H160.3Z" transform="translate(-93.376 -63.999)"/><path class="b" d="M69.929,140.766l.485-2.869h-1.5l-.485,2.869H67.1l1.132-6.466h1.334l-.445,2.505h1.5l.445-2.505h1.334l-1.132,6.466Z" transform="translate(-39.984 -80.028)"/><path class="b" d="M82.177,140.766l-.081-1.374H80.44l-.566,1.374H78.5l2.829-6.466h1.657l.525,6.466Zm-.242-5.294-1.172,2.869h1.293Z" transform="translate(-46.777 -80.028)"/><path class="b" d="M101.867,138.688a2.312,2.312,0,0,1-.849,1.536,2.77,2.77,0,0,1-1.657.485,1.854,1.854,0,0,1-1.455-.485,1.832,1.832,0,0,1-.2-1.536v-.04h1.253v.04a1.515,1.515,0,0,0-.04.4,1.118,1.118,0,0,0,.04.364.414.414,0,0,0,.2.242.606.606,0,0,0,.4.081.822.822,0,0,0,.606-.242,1.7,1.7,0,0,0,.364-.768.884.884,0,0,0-.081-.768.744.744,0,0,0-.647-.242h-.445l.2-1.051h.242a1.207,1.207,0,0,0,.808-.242,1.514,1.514,0,0,0,.364-.768c.04-.283.04-.485-.081-.606a.521.521,0,0,0-.444-.2.782.782,0,0,0-.808.606.305.305,0,0,0-.04.162,1.751,1.751,0,0,0-.04.2H98.311v-.04A2.084,2.084,0,0,1,100.655,134a1.865,1.865,0,0,1,1.374.444,1.414,1.414,0,0,1,.283,1.253l-.121.485c-.081.162-.162.283-.242.445l-.364.364a1.493,1.493,0,0,1-.445.2,1.075,1.075,0,0,1,.727.485A2.767,2.767,0,0,1,101.867,138.688Z" transform="translate(-58.183 -79.849)"/><path class="b" d="M111.677,140.766l-.081-1.374H109.94l-.566,1.374H108l2.829-6.466h1.657l.525,6.466Zm-.2-5.294-1.172,2.869H111.6Z" transform="translate(-64.356 -80.028)"/><path class="b" d="M126.326,138.947a2.552,2.552,0,0,1-.323.889,1.519,1.519,0,0,1-.566.566,2.273,2.273,0,0,1-.727.283,6.052,6.052,0,0,1-.889.081H121.8l1.132-6.466h2.061a4.475,4.475,0,0,1,.768.081,1.248,1.248,0,0,1,.566.283,1.031,1.031,0,0,1,.323.485,1.622,1.622,0,0,1,0,.768,2.414,2.414,0,0,1-.4.929,1.532,1.532,0,0,1-.849.525C126.164,137.533,126.488,138.058,126.326,138.947Zm-1.334-.121c.081-.364.04-.647-.121-.768a1.249,1.249,0,0,0-.768-.2h-.525l-.364,1.94h.525a1.516,1.516,0,0,0,.445-.04,1.435,1.435,0,0,0,.364-.162.543.543,0,0,0,.242-.283A.887.887,0,0,0,124.992,138.826Zm.323-2.708a.8.8,0,0,0,0-.445.414.414,0,0,0-.2-.242,2.783,2.783,0,0,0-.323-.121c-.121,0-.283-.04-.445-.04h-.283l-.283,1.7h.727a.564.564,0,0,0,.364-.121c.121-.04.2-.162.283-.242A1.363,1.363,0,0,0,125.316,136.118Z" transform="translate(-72.579 -80.028)"/><path class="b" d="M138.348,135.491l-.929,5.375h-1.293l.929-5.375H135.6l.2-1.091h4.162l-.2,1.091Z" transform="translate(-80.803 -80.088)"/><path class="b" d="M149.709,136.24a3.845,3.845,0,0,1-.283.889,1.9,1.9,0,0,1-.525.606,1.5,1.5,0,0,1-.727.323,3.151,3.151,0,0,1-.889.121h-.647l-.445,2.586H144.9l1.132-6.466h2.021a2.686,2.686,0,0,1,.849.121,1.1,1.1,0,0,1,.566.323,1.062,1.062,0,0,1,.283.606A2.259,2.259,0,0,1,149.709,136.24Zm-1.334,0c.081-.364.04-.647-.121-.768a1.249,1.249,0,0,0-.768-.2h-.364l-.323,1.94h.4a1.514,1.514,0,0,0,.445-.04.812.812,0,0,0,.323-.162,1.759,1.759,0,0,0,.242-.283A1.364,1.364,0,0,0,148.375,136.24Z" transform="translate(-86.344 -80.028)"/><path class="b" d="M159.077,140.766,159,139.392H157.34l-.566,1.374H155.4l2.829-6.466h1.657l.525,6.466Zm-.242-5.294-1.172,2.869h1.293Z" transform="translate(-92.601 -80.028)"/></svg>