<?xml version="1.0" encoding="utf-8"?>
<!-- Generator: Adobe Illustrator 19.2.1, SVG Export Plug-In . SVG Version: 6.00 Build 0)  -->
<svg version="1.1" id="Layer_1" xmlns="http://www.w3.org/2000/svg" xmlns:xlink="http://www.w3.org/1999/xlink" x="0px" y="0px"
	 width="81px" height="38px" viewBox="0 0 81 38" style="enable-background:new 0 0 81 38;" xml:space="preserve">
<style type="text/css">
	.st0{fill:#FFFFFF;}
	.st1{fill:none;}
</style>
<g transform="translate(-793.265 598.489)">
	<path class="st0" d="M812-592.8h-14c-0.5,0-0.8-0.4-0.8-0.8s0.4-0.8,0.8-0.8h14c0.4,0,0.8,0.4,0.8,0.8c0,0,0,0,0,0
		C812.8-593.2,812.4-592.9,812-592.8z"/>
	<path class="st0" d="M808.5-588.1h-14.5c-0.5,0-0.8-0.4-0.8-0.8s0.4-0.8,0.8-0.8h14.5c0.5,0,0.8,0.4,0.8,0.8S809-588.1,808.5-588.1
		L808.5-588.1z"/>
	<path class="st0" d="M809.6-583.4h-11.3c-0.5,0-0.8-0.4-0.8-0.8c0-0.4,0.4-0.8,0.8-0.8h11.3c0.4,0,0.8,0.4,0.8,0.8c0,0,0,0,0,0
		C810.4-583.8,810.1-583.4,809.6-583.4z"/>
	<path class="st1" d="M829.8-570.7c-0.8-0.9-2-1.5-3.3-1.4c-1.8,0-3.6,0.9-4.7,2.3h8.5C830.1-570.1,830-570.4,829.8-570.7z"/>
	<path class="st1" d="M826.5-573.4c1.6,0,3.2,0.7,4.2,1.9c0.4,0.5,0.7,1.1,0.9,1.7h16l4.8-27.4h-37.2l-4.8,27.4h9.8
		C821.6-572,823.9-573.3,826.5-573.4z"/>
	<path class="st1" d="M820.4-566.8c-0.3,1.3,0.1,2.6,0.8,3.6c0.8,0.9,2,1.5,3.3,1.4c3-0.1,5.6-2.3,6.1-5.3c0.1-0.5,0.1-0.9,0.1-1.4
		h-9.8C820.6-567.9,820.5-567.4,820.4-566.8z"/>
	<path class="st0" d="M853.7-598.3c-0.1-0.2-0.3-0.2-0.5-0.2h-38.5c-0.3,0-0.6,0.2-0.6,0.6l-5,28.7c0,0.2,0,0.4,0.1,0.5
		c0.1,0.2,0.3,0.2,0.5,0.2h9.8c0.2-0.4,0.4-0.9,0.7-1.3h-9.7l4.8-27.4h37.2l-2.9,16.8l-0.2,1.4l-1.6,9.3h-15.9
		c0.1,0.4,0.2,0.9,0.3,1.3h16.2c0.3,0,0.6-0.2,0.6-0.6l1.7-9.6l0.2-1.4l3.1-17.7C853.8-597.9,853.8-598.1,853.7-598.3z"/>
	<path class="st0" d="M830.7-571.5c-1-1.2-2.6-1.9-4.2-1.9c-2.6,0.1-4.9,1.4-6.3,3.6c-0.3,0.4-0.5,0.9-0.7,1.3
		c-0.2,0.5-0.3,0.9-0.4,1.4c-0.3,1.6,0.1,3.4,1.1,4.7c1,1.2,2.6,1.9,4.2,1.9c3.6-0.1,6.7-2.8,7.4-6.4c0.1-0.5,0.1-1.1,0.1-1.6
		c0-0.4-0.1-0.9-0.3-1.3C831.4-570.4,831.1-571,830.7-571.5z M830.6-567c-0.6,3-3.1,5.2-6.1,5.3c-1.2,0-2.4-0.5-3.3-1.4
		c-0.8-1-1.1-2.3-0.8-3.6c0.2-1.1,0.7-2.1,1.4-2.9c1.2-1.4,2.9-2.3,4.7-2.3c1.2,0,2.4,0.5,3.3,1.4c0.2,0.3,0.4,0.6,0.5,0.9
		c0.2,0.4,0.3,0.9,0.4,1.3C830.7-568,830.7-567.5,830.6-567z"/>
	<path class="st0" d="M870.1-578.9h-14.5c-0.2,0-0.5-0.1-0.6-0.3c-0.2-0.2-0.2-0.4-0.2-0.7l1.6-9.2c0.1-0.4,0.4-0.7,0.8-0.7h8.9
		c0.3,0,0.6,0.2,0.7,0.5l4,9.2c0.1,0.3,0.1,0.5-0.1,0.8C870.7-579.1,870.4-578.9,870.1-578.9z M856.6-580.6h12.3l-3.3-7.5h-7.7
		L856.6-580.6z"/>
	<path class="st0" d="M825-563.4c-0.9,0-1.8-0.4-2.4-1.1c-0.6-0.7-0.8-1.7-0.6-2.6c0.4-2,2-3.4,4-3.5c0.9,0,1.8,0.4,2.4,1.1
		c0.6,0.7,0.8,1.7,0.6,2.6C828.6-564.9,827-563.4,825-563.4z M826-569.2c-1.4,0.1-2.5,1.1-2.7,2.4c-0.1,0.5,0,1.1,0.4,1.5
		c0.3,0.4,0.9,0.6,1.4,0.6c1.4-0.1,2.5-1.1,2.7-2.4c0.1-0.5,0-1.1-0.4-1.5C827-569,826.5-569.2,826-569.2L826-569.2z"/>
	<path class="st1" d="M861.8-570.7c-0.8-0.9-2-1.5-3.3-1.4c-1.6,0-3.2,0.7-4.3,1.9h7.8C862-570.4,861.9-570.5,861.8-570.7z"/>
	<path class="st1" d="M852.4-566.8c-0.3,1.3,0.1,2.6,0.8,3.6c0.8,0.9,2,1.5,3.3,1.4c3-0.1,5.6-2.3,6.1-5.3c0.1-0.5,0.1-1,0-1.6H853
		C852.7-568,852.5-567.4,852.4-566.8z"/>
	<path class="st1" d="M858.5-573.4c1.6,0,3.2,0.7,4.2,1.9c0.3,0.4,0.6,0.8,0.8,1.3h7.5l1.7-9.8l-4.8-10.8H856l-3.6,20.6h0.1
		C853.9-572.2,856.2-573.3,858.5-573.4z"/>
	<path class="st0" d="M872.9-583.6l-0.6-1.3l-3.2-7.1c-0.1-0.3-0.4-0.5-0.7-0.5h-13.1c-0.4,0-0.7,0.3-0.8,0.7l-2.1,12.2l-0.2,1.3
		l-1.5,8.6c0,0.2,0,0.5,0.2,0.7c0.1,0.2,0.4,0.3,0.6,0.3h0.1c0.2-0.6,0.6-1.1,0.9-1.6h-0.1l1.4-7.7l0.2-1.3l2-11.5h11.9l3.1,7
		l0.6,1.3l1.1,2.5l-1.7,9.8h-7.5c0.2,0.5,0.4,1.1,0.4,1.6h7.7c0.4,0,0.7-0.3,0.8-0.7l1.9-10.7c0-0.2,0-0.3-0.1-0.5L872.9-583.6z"/>
	<path class="st0" d="M862.8-571.5c-1-1.2-2.6-1.9-4.2-1.9c-2.4,0.1-4.6,1.2-6,3.2c-0.7,0.9-1.2,2-1.4,3.2c-0.3,1.6,0.1,3.4,1.1,4.7
		c1,1.2,2.6,1.9,4.2,1.9c3.6-0.1,6.7-2.8,7.4-6.4c0.1-0.6,0.1-1.2,0.1-1.8c-0.1-0.6-0.2-1.1-0.4-1.6
		C863.3-570.7,863.1-571.1,862.8-571.5z M862.6-567c-0.6,3-3.1,5.1-6.1,5.3c-1.2,0-2.4-0.5-3.3-1.4c-0.8-1-1.1-2.3-0.8-3.6
		c0.1-0.6,0.3-1.2,0.6-1.8c0.3-0.6,0.7-1.1,1.2-1.6c1.1-1.2,2.7-1.8,4.3-1.9c1.2,0,2.4,0.5,3.3,1.4c0.1,0.1,0.2,0.3,0.3,0.4
		c0.3,0.5,0.5,1.1,0.6,1.6C862.7-568.1,862.7-567.6,862.6-567L862.6-567z"/>
	<path class="st0" d="M857-563.4c-0.9,0-1.8-0.4-2.4-1.1c-0.6-0.7-0.8-1.7-0.6-2.6c0.4-2,2-3.4,4-3.5c0.9,0,1.8,0.4,2.4,1.1
		c0.6,0.7,0.8,1.7,0.6,2.6C860.7-564.9,859-563.4,857-563.4z M858-569.2c-1.4,0.1-2.5,1.1-2.7,2.4c-0.1,0.5,0,1.1,0.4,1.5
		c0.3,0.4,0.9,0.6,1.4,0.6c1.4-0.1,2.5-1.1,2.7-2.4c0.1-0.5,0-1.1-0.4-1.5C859-569,858.5-569.2,858-569.2L858-569.2z"/>
	<path class="st0" d="M819.3-585l0.2-1.2h-2.5l-0.2,1.2h-1l0.4-2.1h0.4c0.2-0.3,0.3-0.5,0.5-0.7c0.1-0.2,0.2-0.5,0.3-0.7
		c0.1-0.3,0.2-0.5,0.2-0.8c0.1-0.3,0.1-0.6,0.2-0.8l0.2-1.3h2.8l-0.7,4.3h0.5l-0.4,2.1L819.3-585L819.3-585z M819.7-590.5h-0.8
		l-0.2,0.8c-0.1,0.3-0.1,0.7-0.2,0.9c-0.1,0.3-0.2,0.5-0.2,0.7c-0.1,0.2-0.2,0.4-0.3,0.6c-0.1,0.2-0.2,0.3-0.3,0.5h1.3L819.7-590.5z
		"/>
	<path class="st0" d="M824.8-588.8c0,0.2-0.1,0.5-0.1,0.7c0,0.2-0.1,0.4-0.2,0.7c-0.1,0.2-0.2,0.4-0.3,0.6c-0.1,0.2-0.2,0.3-0.4,0.5
		c-0.2,0.1-0.3,0.2-0.5,0.3c-0.2,0.1-0.5,0.1-0.7,0.1c-0.6,0.1-1.2-0.3-1.4-0.9c-0.1-0.3-0.1-0.6-0.1-0.9c0-0.3,0.1-0.7,0.1-1
		c0-0.2,0.1-0.4,0.1-0.7c0-0.2,0.1-0.4,0.2-0.6c0.1-0.2,0.2-0.4,0.3-0.6c0.1-0.2,0.2-0.3,0.4-0.5c0.2-0.1,0.3-0.2,0.5-0.3
		c0.2-0.1,0.5-0.1,0.7-0.1c0.2,0,0.5,0,0.7,0.1c0.2,0.1,0.3,0.2,0.4,0.3c0.1,0.1,0.2,0.3,0.2,0.5c0,0.2,0.1,0.4,0.1,0.6
		c0,0.2,0,0.4,0,0.6L824.8-588.8z M823.7-588.7c0.1-0.3,0.1-0.6,0.1-0.8c0-0.2,0-0.4,0-0.7c0-0.1,0-0.3-0.1-0.4
		c-0.1-0.1-0.2-0.1-0.4-0.1c-0.2,0-0.3,0-0.4,0.1c-0.1,0.1-0.2,0.2-0.3,0.4c-0.1,0.2-0.1,0.4-0.2,0.6c-0.1,0.2-0.1,0.5-0.2,0.8
		c-0.1,0.3-0.1,0.6-0.1,0.8c0,0.2,0,0.4,0,0.6c0,0.1,0.1,0.3,0.1,0.4c0.1,0.1,0.2,0.1,0.4,0.1c0.1,0,0.3,0,0.4-0.1
		c0.1-0.1,0.2-0.2,0.3-0.4c0.1-0.2,0.1-0.4,0.2-0.6C823.6-588.1,823.6-588.4,823.7-588.7L823.7-588.7z"/>
	<path class="st0" d="M828.4-587.3c-0.1,0.2-0.2,0.4-0.4,0.7c-0.2,0.2-0.4,0.3-0.6,0.4c-0.3,0.1-0.6,0.2-0.9,0.2
		c-0.3,0-0.7-0.1-0.9-0.3c-0.2-0.2-0.3-0.4-0.4-0.6c-0.1-0.3-0.1-0.6,0-0.9c0-0.3,0.1-0.6,0.1-0.9c0.1-0.3,0.1-0.7,0.2-0.9
		c0.1-0.3,0.2-0.6,0.4-0.9c0.2-0.3,0.4-0.5,0.6-0.7c0.3-0.2,0.6-0.3,1-0.3c0.3,0,0.5,0,0.7,0.1c0.2,0.1,0.3,0.2,0.5,0.3
		c0.1,0.2,0.2,0.4,0.2,0.6c0,0.3,0,0.5,0,0.8v0.1h-1v-0.1c0.1-0.3,0.1-0.5,0-0.8c-0.1-0.2-0.2-0.2-0.4-0.2c-0.1,0-0.3,0-0.4,0.1
		c-0.1,0.1-0.2,0.2-0.3,0.4c-0.1,0.2-0.1,0.4-0.2,0.6c-0.1,0.3-0.1,0.6-0.2,0.9c-0.1,0.3-0.1,0.6-0.1,0.8c0,0.2,0,0.4,0,0.6
		c0,0.1,0.1,0.3,0.1,0.4c0.1,0.1,0.2,0.1,0.4,0.1c0.2,0,0.4-0.1,0.5-0.3c0.2-0.3,0.3-0.7,0.3-1h1
		C828.5-587.8,828.5-587.5,828.4-587.3z"/>
	<path class="st0" d="M831.5-590.4l-0.7,4.3h-1l0.7-4.3h-1.2l0.2-0.9h3.3l-0.2,0.9H831.5z"/>
	<path class="st0" d="M834.9-586.1l-0.1-1.1h-1.3l-0.5,1.1h-1.1l2.3-5.2h1.3l0.4,5.2H834.9z M834.7-590.4l-0.9,2.3h1L834.7-590.4z"
		/>
	<path class="st0" d="M840-587.6c0,0.3-0.1,0.5-0.3,0.7c-0.1,0.2-0.3,0.3-0.5,0.5c-0.2,0.1-0.4,0.2-0.6,0.2c-0.2,0-0.5,0.1-0.7,0.1
		h-1.6l0.9-5.2h1.6c0.2,0,0.4,0,0.6,0.1c0.2,0,0.3,0.1,0.5,0.2c0.1,0.1,0.2,0.2,0.3,0.4c0.1,0.2,0.1,0.4,0,0.6
		c-0.1,0.3-0.2,0.5-0.3,0.8c-0.2,0.2-0.4,0.4-0.7,0.4C839.9-588.7,840.1-588.3,840-587.6z M838.9-587.7c0.1-0.3,0-0.5-0.1-0.6
		c-0.2-0.1-0.4-0.2-0.6-0.2h-0.4l-0.3,1.6h0.4c0.1,0,0.2,0,0.4,0c0.1,0,0.2-0.1,0.3-0.1c0.1-0.1,0.2-0.1,0.2-0.2
		C838.9-587.4,838.9-587.5,838.9-587.7L838.9-587.7z M839.2-589.9c0-0.1,0-0.2,0-0.4c0-0.1-0.1-0.2-0.2-0.2c-0.1,0-0.2-0.1-0.3-0.1
		c-0.1,0-0.2,0-0.4,0h-0.3l-0.2,1.4h0.6c0.1,0,0.2,0,0.3-0.1c0.1,0,0.2-0.1,0.2-0.2C839.1-589.6,839.2-589.7,839.2-589.9
		L839.2-589.9z"/>
	<path class="st0" d="M842.8-586.1l-0.7-2.1l-0.5,0.6l-0.3,1.6h-1l0.9-5.2h1l-0.4,2.2l1.7-2.2h1.1l-1.8,2.2l1.1,3L842.8-586.1
		L842.8-586.1z"/>
	<path class="st0" d="M846.8-586.1l-0.1-1.1h-1.3l-0.5,1.1h-1.1l2.3-5.2h1.3l0.4,5.2H846.8z M846.6-590.4l-0.9,2.3h1L846.6-590.4z"
		/>
	<path class="st0" d="M817.2-577.4l0.4-2.3h-1.2l-0.4,2.3h-1.1l0.9-5.2h1.1l-0.4,2h1.2l0.4-2h1.1l-0.9,5.2H817.2z"/>
	<path class="st0" d="M821.6-577.4l-0.1-1.1h-1.3l-0.5,1.1h-1.1l2.3-5.2h1.3l0.4,5.2H821.6z M821.4-581.6l-0.9,2.3h1L821.4-581.6z"
		/>
	<path class="st0" d="M828.2-578.9c-0.1,0.5-0.3,0.9-0.7,1.2c-0.4,0.3-0.9,0.4-1.3,0.4c-0.4,0-0.9-0.1-1.2-0.4
		c-0.2-0.4-0.3-0.8-0.2-1.2v0h1v0c0,0.1,0,0.2,0,0.3c0,0.1,0,0.2,0,0.3c0,0.1,0.1,0.2,0.2,0.2c0.1,0.1,0.2,0.1,0.3,0.1
		c0.2,0,0.4-0.1,0.5-0.2c0.1-0.2,0.2-0.4,0.3-0.6c0.1-0.2,0-0.4-0.1-0.6c-0.1-0.1-0.3-0.2-0.5-0.2h-0.4l0.2-0.8h0.2
		c0.2,0,0.5-0.1,0.6-0.2c0.2-0.2,0.3-0.4,0.3-0.6c0-0.2,0-0.4-0.1-0.5c-0.1-0.1-0.2-0.2-0.4-0.2c-0.3,0-0.6,0.2-0.6,0.5
		c0,0,0,0.1,0,0.1c0,0.1,0,0.1,0,0.2h-1v0c0.1-0.9,0.9-1.6,1.9-1.5c0,0,0,0,0,0c0.4,0,0.8,0.1,1.1,0.4c0.2,0.3,0.3,0.7,0.2,1
		l-0.1,0.4c-0.1,0.1-0.1,0.2-0.2,0.4l-0.3,0.3c-0.1,0.1-0.2,0.1-0.4,0.2c0.2,0,0.5,0.2,0.6,0.4C828.2-579.4,828.2-579.2,828.2-578.9
		z"/>
	<path class="st0" d="M831.1-577.4l-0.1-1.1h-1.3l-0.5,1.1h-1.1l2.3-5.2h1.3l0.4,5.2H831.1z M830.9-581.6l-0.9,2.3h1L830.9-581.6z"
		/>
	<path class="st0" d="M836.2-578.8c0,0.3-0.1,0.5-0.3,0.7c-0.1,0.2-0.3,0.3-0.5,0.5c-0.2,0.1-0.4,0.2-0.6,0.2
		c-0.2,0-0.5,0.1-0.7,0.1h-1.6l0.9-5.2h1.6c0.2,0,0.4,0,0.6,0.1c0.2,0,0.3,0.1,0.5,0.2c0.1,0.1,0.2,0.2,0.3,0.4c0,0.2,0,0.4,0,0.6
		c-0.1,0.3-0.2,0.5-0.3,0.8c-0.2,0.2-0.4,0.4-0.7,0.4C836.1-580,836.3-579.5,836.2-578.8z M835.1-578.9c0.1-0.3,0-0.5-0.1-0.6
		c-0.2-0.1-0.4-0.2-0.6-0.2H834l-0.3,1.6h0.4c0.1,0,0.2,0,0.4,0c0.1,0,0.2-0.1,0.3-0.1c0.1-0.1,0.2-0.1,0.2-0.2
		C835.1-578.6,835.1-578.8,835.1-578.9L835.1-578.9z M835.4-581.1c0-0.1,0-0.2,0-0.4c0-0.1-0.1-0.2-0.2-0.2c-0.1,0-0.2-0.1-0.3-0.1
		c-0.1,0-0.2,0-0.4,0h-0.2l-0.2,1.4h0.6c0.1,0,0.2,0,0.3-0.1c0.1,0,0.2-0.1,0.2-0.2C835.3-580.8,835.4-581,835.4-581.1L835.4-581.1z
		"/>
	<path class="st0" d="M839.3-581.7l-0.7,4.3h-1l0.7-4.3h-1.2l0.2-0.9h3.3l-0.2,0.9H839.3z"/>
	<path class="st0" d="M843.9-581c0,0.2-0.1,0.5-0.2,0.7c-0.1,0.2-0.2,0.4-0.4,0.5c-0.2,0.1-0.4,0.2-0.6,0.3
		c-0.2,0.1-0.5,0.1-0.7,0.1h-0.5l-0.4,2.1h-1l0.9-5.2h1.6c0.2,0,0.5,0,0.7,0.1c0.2,0,0.3,0.1,0.5,0.3c0.1,0.1,0.2,0.3,0.2,0.5
		C844-581.5,844-581.2,843.9-581z M842.8-581c0.1-0.3,0-0.5-0.1-0.6c-0.2-0.1-0.4-0.2-0.6-0.2h-0.3l-0.3,1.6h0.3c0.1,0,0.2,0,0.4,0
		c0.1,0,0.2-0.1,0.3-0.1c0.1-0.1,0.1-0.1,0.2-0.2C842.8-580.7,842.8-580.9,842.8-581z"/>
	<path class="st0" d="M846.4-577.4l-0.1-1.1H845l-0.5,1.1h-1.1l2.3-5.2h1.3l0.4,5.2H846.4z M846.2-581.6l-0.9,2.3h1L846.2-581.6z"/>
</g>
</svg>
