<svg xmlns="http://www.w3.org/2000/svg" viewBox="0 0 240 67.145"><defs><style>.a{fill:#ec2127;}</style></defs><g transform="translate(-238 -41.719)"><path class="a" d="M83.878,11,80.721,47.246H68.776l.961-7.277H60.4l-4.119,7.139H44.2L69.188,11ZM70.7,33.516,73.856,17.59h-.137L64.245,33.516Z" transform="translate(254.492 45.692)"/><path class="a" d="M98.762,23.194c.961-3.158,1.236-4.119,1.236-4.256,0-1.1-.961-1.785-3.432-1.785-2.883,0-4.668,1.1-5.217,2.746l-5.492,18.26a5.1,5.1,0,0,0-.275,1.236c0,1.785,1.648,2.609,3.57,2.609a5.2,5.2,0,0,0,5.08-3.3l1.236-4.119H91.211l1.922-6.453H109.06l-5.766,19.5H95.33l.412-3.021c-1.785,2.334-6.727,3.982-12.082,3.982-5.217,0-10.16-1.785-10.16-7.139a16.441,16.441,0,0,1,.549-3.3l5.217-17.3C81.189,14.407,87.23,10.7,98.35,10.7c9.336,0,13.455,2.609,13.455,7.277,0,.961-.275,2.2-1.236,5.492H98.762Z" transform="translate(265.42 45.58)"/><path class="a" d="M111.457,35.488a13.8,13.8,0,0,0-.961,3.982c0,1.922,1.51,2.471,3.844,2.471,2.746,0,5.217-1.922,5.217-4.531,0-1.51-1.236-2.609-3.432-3.707l-6.453-3.3c-2.883-1.51-4.668-3.844-4.668-7,0-8.1,8.238-12.906,18.535-12.906,7,0,12.357,2.334,12.357,7.826a12.53,12.53,0,0,1-.686,3.844H124.225a7.978,7.978,0,0,0,.549-2.609c0-1.785-1.236-2.609-3.3-2.609-3.02,0-4.805,1.785-4.805,3.844,0,1.236.824,2.2,2.883,3.158l6.59,3.3c3.158,1.51,5.217,3.432,5.217,6.727,0,7.139-6.178,14.416-19.221,14.416-8.787,0-13.043-2.471-13.043-7.139,0-.961.137-2.334,1.373-5.766h10.984Z" transform="translate(274.967 45.505)"/><path class="a" d="M156.946,11l.549,36.246H145.55l.275-7.277h-9.336l-3.707,7.277H120.7L142.393,11ZM146.1,33.516l1.51-15.926h-.137l-7.963,15.926Z" transform="translate(283.023 45.692)"/><path class="a" d="M163.819,47.346H152.561l8.65-29.381H151.6l2.059-6.865h29.793l-2.059,6.865h-8.924Z" transform="translate(294.547 45.729)"/><path class="a" d="M108.126,44.868c0-.137.137-.275.137-.412.137-.686-.412-1.236-1.236-1.236-2.2,0-3.021,3.3-3.158,4.119-.137,1.1.275,1.785,1.236,1.785a2.392,2.392,0,0,0,2.2-1.648h4.531c-1.51,3.432-4.531,4.668-7.689,4.668s-5.217-1.51-4.805-4.393a8.561,8.561,0,0,1,8.65-7.414c2.746,0,5.08,1.1,4.805,3.982a1.238,1.238,0,0,1-.137.686h-4.531Zm18.672-.275a8.426,8.426,0,0,1-8.512,7.414c-3.158,0-5.08-1.51-4.805-4.393a8.36,8.36,0,0,1,8.65-7.414C125.288,40.2,127.073,41.985,126.8,44.593Zm-8.924,2.746c-.137,1.236.412,1.785,1.236,1.785,2.2,0,3.02-3.3,3.158-3.982.137-1.1-.275-1.922-1.236-1.922C119.11,43.221,118.012,45.829,117.874,47.339Zm15.789-5.08a6.824,6.824,0,0,1,4.119-1.922c2.059,0,2.883.824,3.021,2.059a6.3,6.3,0,0,1,4.531-2.059c2.609,0,3.432,1.1,3.158,3.021a5.389,5.389,0,0,1-.412,1.922l-2.059,6.59h-4.393l1.785-5.766a5.1,5.1,0,0,0,.275-1.236c.137-.824-.137-1.1-1.1-1.1-1.373,0-1.922,1.1-2.334,2.471l-1.785,5.492h-4.393l1.785-5.766a5.094,5.094,0,0,0,.275-1.236c.137-.824-.137-1.1-1.1-1.1-1.236,0-1.922,1.1-2.334,2.471L130.917,51.6h-4.393l3.57-11.258h4.119Zm16.887,5.08h4.531l-1.373,4.393h-4.531Zm-56.978,0H98.1l-1.373,4.393H92.2Zm70.021-6.727-1.922,6.041a2.416,2.416,0,0,0-.137.824c-.137.824.275,1.236,1.1,1.236,1.236,0,2.059-.961,2.609-2.746l1.648-5.355h4.393l-3.57,11.258h-4.119l.549-1.648a5.929,5.929,0,0,1-4.668,1.922c-1.922,0-3.158-.961-2.883-3.158a3.58,3.58,0,0,1,.412-1.51l2.2-6.865h4.393Zm9.062,3.432c.824-2.334,2.883-3.707,7.277-3.707,3.982,0,4.805,1.1,4.668,2.746a12.18,12.18,0,0,1-.412,1.922l-1.648,5.217a1.237,1.237,0,0,0-.137.686,1.009,1.009,0,0,0,.275.824v.275h-4.531l.137-1.236a7.024,7.024,0,0,1-4.668,1.51c-1.922,0-3.3-.824-3.021-2.609.275-3.02,3.158-4.119,5.629-4.393,3.432-.275,3.982-.686,4.119-1.51,0-.549-.687-.686-1.236-.686a1.957,1.957,0,0,0-1.922,1.1h-4.531Zm4.531,3.3c-1.1.137-1.922.549-2.059,1.51,0,.412.275.686,1.1.686,1.51,0,2.334-1.1,2.883-2.746C178.559,46.927,177.735,47.2,177.186,47.339Z" transform="translate(272.394 56.582)"/><path class="a" d="M58.373,8.839l7-7.139h1.1l-2.609,8.512H62.9l2.2-7.139-7,7.139H57L59.471,1.7h.961Z" transform="translate(259.266 42.223)"/><path class="a" d="M67.334,5.27H72L73.1,1.7h.961L71.59,10.212h-.961l1.236-4.119H67.2l-1.236,4.119H65L67.471,1.7h.961Z" transform="translate(262.249 42.223)"/><path class="a" d="M80.6,1.7l-.275.824H77.444L75.11,10.212h-.961l2.334-7.689H73.6l.275-.824H80.6Z" transform="translate(265.457 42.223)"/><path class="a" d="M80.877,6.168a2.337,2.337,0,0,0-.137.961A1.908,1.908,0,0,0,82.8,9.463a3.645,3.645,0,0,0,3.158-1.922h1.1c-1.1,1.648-2.471,2.883-4.668,2.883S79.367,9.189,79.5,7.4C79.779,4.383,82.113,1.5,85,1.5c1.922,0,2.883,1.1,2.609,3.02a6.891,6.891,0,0,1-.275,1.648Zm5.766-.824a1.742,1.742,0,0,0,.137-.824,1.822,1.822,0,0,0-1.922-2.2c-1.785,0-3.02,1.373-3.707,3.021Z" transform="translate(267.653 42.149)"/><path class="a" d="M87.261,13.582H86.3L89.87,1.775h.961l-.412,1.51h0A4.726,4.726,0,0,1,93.851,1.5c2.2,0,2.883,1.236,2.746,3.02-.275,2.883-2.334,5.9-5.492,5.9a2.467,2.467,0,0,1-2.471-1.51ZM89.32,7.129A2.011,2.011,0,0,0,91.38,9.6c2.059,0,3.982-2.334,4.119-4.668.137-1.373-.412-2.471-2.059-2.471C91.655,2.461,89.458,4.383,89.32,7.129Z" transform="translate(270.193 42.149)"/><path class="a" d="M97.734,5.27H102.4l1.1-3.57h.961l-2.471,8.512h-.961l1.236-4.119H97.6l-1.236,4.119H95.4L97.871,1.7h.961Z" transform="translate(273.587 42.223)"/><path class="a" d="M104.74,6.168a2.337,2.337,0,0,0-.137.961,1.908,1.908,0,0,0,2.059,2.334,3.645,3.645,0,0,0,3.158-1.922h1.1a5.065,5.065,0,0,1-4.531,2.883c-2.2,0-3.021-1.236-2.883-3.02.275-3.021,2.609-5.9,5.492-5.9,1.922,0,2.883,1.1,2.609,3.02a6.891,6.891,0,0,1-.275,1.648Zm5.766-.824a1.741,1.741,0,0,0,.137-.824,1.822,1.822,0,0,0-1.922-2.2c-1.785,0-3.02,1.373-3.707,3.021Z" transform="translate(276.604 42.149)"/><path class="a" d="M118.9,1.7l-.275.824h-2.883l-2.334,7.689h-.961l2.334-7.689H111.9l.275-.824H118.9Z" transform="translate(279.741 42.223)"/><path class="a" d="M122.393,4.5l-.275.961H118l.275-.961Z" transform="translate(282.016 43.268)"/><path class="a" d="M126.244,1.7l.686,7.414,5.08-7.414h1.236l-2.471,8.512h-.961l2.059-6.865h0l-4.805,6.865h-.961l-.687-6.865-2.059,6.865H122.4L124.871,1.7h1.373Z" transform="translate(283.657 42.223)"/><path class="a" d="M133.188,4.346A4.282,4.282,0,0,1,137.445,1.6c1.51,0,2.609.549,2.471,1.922,0,.275-.137.412-.137.686l-1.373,4.531a1.383,1.383,0,0,1-.137.412c0,.275,0,.412.275.412a1.493,1.493,0,0,0,.686-.137l-.275.824a2.041,2.041,0,0,1-.824.137c-.687,0-.961-.137-.961-.961V9.014h0a5.083,5.083,0,0,1-3.57,1.373c-1.373,0-2.334-.549-2.2-1.922s1.236-2.746,3.844-3.158l1.922-.275c1.1-.137,1.51-.686,1.51-1.51,0-.686-.412-1.236-1.648-1.236a2.81,2.81,0,0,0-3.02,1.922h-.824Zm2.334,1.922c-1.785.137-2.883.961-3.02,2.059-.137.824.549,1.236,1.373,1.236a3.822,3.822,0,0,0,3.844-2.471l.412-1.373A7.48,7.48,0,0,1,135.522,6.268Z" transform="translate(287.01 42.186)"/><path class="a" d="M146.926,1.7l-.275.824H142.4l-2.334,7.689H139.1L141.571,1.7h5.355Z" transform="translate(289.886 42.223)"/><path class="a" d="M146.951,4.346A4.282,4.282,0,0,1,151.207,1.6c1.51,0,2.609.549,2.471,1.922,0,.275-.137.412-.137.686l-1.373,4.531a1.383,1.383,0,0,1-.137.412c0,.275,0,.412.275.412a1.493,1.493,0,0,0,.686-.137l-.275.824a2.041,2.041,0,0,1-.824.137c-.686,0-.961-.137-.961-.961a.5.5,0,0,1,.137-.412h0a5.083,5.083,0,0,1-3.57,1.373c-1.236,0-2.334-.549-2.2-1.922s1.236-2.746,3.844-3.158l1.922-.275c1.1-.137,1.51-.686,1.51-1.51,0-.686-.412-1.236-1.648-1.236a2.81,2.81,0,0,0-3.02,1.922h-.961Zm2.471,1.922c-1.785.137-2.883.961-3.02,2.059-.137.824.549,1.236,1.373,1.236a3.822,3.822,0,0,0,3.844-2.471l.412-1.373A8.364,8.364,0,0,1,149.422,6.268Z" transform="translate(292.195 42.186)"/><path class="a" d="M156.811,5.307h1.1c.824,0,2.059-.686,2.059-1.785,0-.686-.412-1.1-1.785-1.1a2.922,2.922,0,0,0-2.746,1.785h-.961A4,4,0,0,1,158.321,1.6c1.922,0,2.609.824,2.609,1.785a2.779,2.779,0,0,1-2.2,2.334A1.778,1.778,0,0,1,160.106,7.5c-.275,1.785-2.059,2.883-4.256,2.883-1.922,0-2.883-.961-2.746-2.471a.5.5,0,0,1,.137-.412h.961v.275c-.137,1.1.686,1.648,2.059,1.648,1.648,0,2.746-.824,2.883-2.059.137-.961-.686-1.373-1.648-1.373h-.824Z" transform="translate(295.103 42.186)"/><path class="a" d="M161.573,8.839l7-7.139h1.1L167.2,10.212h-.961l2.2-7.139L161.3,10.212h-1.1L162.671,1.7h.961Z" transform="translate(297.755 42.223)"/><path class="a" d="M170.534,5.27H175.2l1.1-3.57h.961l-2.471,8.512h-.961l1.236-4.119H170.4l-1.236,4.119H168.2L170.671,1.7h.961Z" transform="translate(300.739 42.223)"/><path class="a" d="M63.707,9.438a17.641,17.641,0,0,0-3.982-3.844C55.607,1.75,49.566-.035,42.838.1a26.53,26.53,0,0,1,5.9.961A18.52,18.52,0,0,1,60.824,8.614c7,10.572,0,27.6-15.652,38.031-15.652,10.3-34.049,10.16-41.051-.412C1.375,41.977.826,36.76,2.061,31.268c1.51-7,6.178-14.553,13.318-20.594C2.061,21.108-3.7,36.348,2.473,46.508c.275.412.412.824.686,1.236A14.294,14.294,0,0,0,6.18,51.176c8.924,9.336,32.127,11.258,45.308,1.51C68.238,41.428,70.984,19.461,63.707,9.438ZM53.822,50.215c-6.316,5.355-13.455,8.375-25.674,8.512,3.021-.549,6.865-.686,10.3-1.785a33.945,33.945,0,0,0,12.906-6.316C60,44.311,64.394,36.211,67,24.4,66.59,31.268,63.3,42.664,53.822,50.215Z" transform="translate(238.005 41.625)"/><path class="a" d="M49.476,7.936,16.8,6.7l1.648,2.2,31.029,1.785a2.05,2.05,0,0,0,.412-1.373C49.888,8.622,49.751,8.073,49.476,7.936Z" transform="translate(244.273 44.088)"/><path class="a" d="M15.911,9.3,6.3,32.915a1.127,1.127,0,0,0,.961.961c.412,0,.961.137,1.373-.412l8.65-22.379Z" transform="translate(240.357 45.058)"/><path class="a" d="M16,8.036l1.785,4.119c1.236-.824,1.51-2.059.961-2.883L16.961,6.8A4.275,4.275,0,0,1,16,8.036Z" transform="translate(243.975 44.125)"/><path class="a" d="M16.173,7.9c-.137.137-.275.275-.412.275-.275.275-.686.412-.961.686l14,35.7a1.8,1.8,0,0,0,1.51,0,1.557,1.557,0,0,0,.961-1.1Z" transform="translate(243.527 44.536)"/><path class="a" d="M13.5,9.075l1.922,2.609a1.249,1.249,0,0,0,1.1.549L15.01,8.8A5.839,5.839,0,0,1,13.5,9.075Z" transform="translate(243.042 44.871)"/><ellipse class="a" cx="4.668" cy="3.158" rx="4.668" ry="3.158" transform="translate(250.075 48.593) rotate(-35.127)"/><path class="a" d="M18.589,3.812,18.177,3.4c.549,1.51-.412,3.707-2.471,5.08a6.985,6.985,0,0,1-3.57,1.236A4.009,4.009,0,0,1,10.9,9.441l.961.961a5.381,5.381,0,0,0,5.217-.686C19.138,7.931,19.687,5.185,18.589,3.812Z" transform="translate(242.073 42.857)"/><path class="a" d="M38.956,38.9c-.137.137-.275.137-.412.275A35.779,35.779,0,0,1,34.7,41.509c1.785,2.2,6.59,8.375,8.787,11.121h2.059a2.022,2.022,0,0,0,2.059-2.059,1.914,1.914,0,0,0-.549-1.236C44.723,46.314,40.741,41.234,38.956,38.9Z" transform="translate(250.949 56.097)"/><path class="a" d="M17.932,43.5c-1.648,2.334-3.021,4.256-3.158,4.531a2.545,2.545,0,0,0-.275.961c0,1.373.686,2.059,1.51,2.059h1.922c.824-1.236,3.3-4.531,5.08-7C21.227,43.912,19.58,43.775,17.932,43.5Z" transform="translate(243.415 57.813)"/><path class="a" d="M32.243,42.4A32.527,32.527,0,0,1,27.3,43.636l.549,3.432c.137.824,1.373,1.373,2.746,1.1s2.334-1.1,2.2-1.922Z" transform="translate(248.189 57.403)"/></g></svg>