<svg xmlns="http://www.w3.org/2000/svg" xmlns:xlink="http://www.w3.org/1999/xlink" viewBox="0 0 49 75" version="1.1" x="0px" y="0px"><title>Space - Outline - 020 - Satellite</title><desc>Created with Sketch.</desc><g stroke="none" stroke-width="1" fill="none" fill-rule="evenodd"><g fill-rule="nonzero" fill="#ffffff"><path d="M44,0 C41.6252075,0.00324284501 39.5791828,1.67383186 39.10107,4 L13.05957,4 C13.052,4 13.0459,4.00409 13.03845,4.00427 C9.94556,3.28278 7.40625,3.58466 5.78894,5.05579 C5.75931751,5.07320918 5.73067128,5.09223768 5.70313,5.11279 L5.66162,5.15588 C5.64624,5.17088 5.62646,5.18018 5.61133,5.19531 C5.59094,5.2157 5.57825,5.24213 5.55833,5.26282 C5.49046,5.33447 5.42698,5.4032 5.37791,5.45801 C5.32779593,5.50475931 5.28143009,5.55537153 5.23924,5.60938 C-1.86133,13.67334 0.57813,27.99219 10.793,38.207 C11.50906,38.923 12.24734,39.59573 13,40.23471 L13,48.063 C8.97449,48.22547 0,48.93342 0,52 L0,56 C0,59.8877 14.3623,60 16,60 C17.6377,60 32,59.8877 32,56 L32,52 C32,48.93341 23.02551,48.22546 19,48.063 L19,44.3412 C22.9403379,46.5432054 27.3620064,47.74173 31.875,47.83106 C36.0605941,47.9435192 40.1409677,46.5103329 43.33691,43.80519 C43.3987862,43.7579926 43.4572054,43.7064276 43.51172,43.65089 C43.57572,43.59303 43.6416,43.52789 43.70801,43.46546 C43.73801,43.43708 43.77539,43.41846 43.80469,43.38917 C43.82227,43.37165 43.83301,43.34895 43.85034,43.33117 C43.86316,43.31841 43.87695,43.30669 43.88965,43.29394 C43.91284,43.27044 43.92139,43.23961 43.94189,43.21447 C45.41565,41.59661 45.71814,39.05523 44.99597,35.95995 C44.99609,35.95287 44.99997,35.94701 44.99997,35.93995 L44.99997,9.89893 C47.5148104,9.38546076 49.2323821,7.05119489 48.9744097,4.49746762 C48.7164373,1.94374035 46.5667241,0.000139815541 44,0 Z M39.10107,6 C39.2300056,6.6259554 39.478526,7.22114737 39.833,7.75293 L31.76489,15.821 C27.8341162,11.886977 23.3265131,8.57525815 18.39746,6 L39.10107,6 Z M42.42883,41.92419 C42.39014,41.9621 42.35132,41.9975 42.31165,42.03436 C39.22365,44.91583 29.31018,41.30798 19.06445,31.34955 L31.76538,18.64874 C41.75159,28.92267 45.35278,38.86682 42.42883,41.92419 Z M30.35425,17.23163 L17.65039,29.93549 C7.68945,19.6875 4.084,9.77032 6.96777,6.6861 C7.00464,6.64648 7.04004,6.6076 7.07788,6.56879 C7.92082852,5.85999776 9.00564944,5.50544106 10.10449,5.57959 C14.62012,5.57959 22.39,9.48981 30.35425,17.23163 Z M2,55.89136 L2,54.14581 C6.00439,55.93176 14.74365,56 16,56 C17.25635,56 25.99561,55.93176 30,54.14581 L30,55.89136 C29.36584,56.631 24.63745,58 16,58 C7.36255,58 2.63416,56.631 2,55.89136 Z M16,54 C7.77539,54 3.09375,52.7583 2.11719,52.00146 C2.95374,51.35992 6.55319,50.32416 13.00659,50.06488 C13.0389554,51.6949342 14.3696245,52.9994446 16,52.9994446 C17.6303755,52.9994446 18.9610446,51.6949342 18.99341,50.06488 C25.44678,50.32416 29.04626,51.35988 29.88281,52.00146 C28.90625,52.7583 24.22461,54 16,54 Z M17,50 C17,50.5522847 16.5522847,51 16,51 C15.4477153,51 15,50.5522847 15,50 L15,41.81018 C15.65857,42.29309 16.32434,42.75488 17,43.18118 L17,50 Z M12.207,36.793 C4.41672,29.00265 1.42307,18.7518 4.16684,11.30832 C4.97824,16.92502 9.61105,24.75204 16.92966,32.07032 C24.25485,39.39607 32.08566,44.02339 37.70383,44.82826 C30.26,47.57886 20.00146,44.5874 12.207,36.793 Z M33.179,17.23505 L41.24707,9.167 C41.7788602,9.52145976 42.3740494,9.76997897 43,9.89893 L43,30.60093 C40.4246109,25.672423 37.1128976,21.1653501 33.179,17.23505 Z M44,8 C42.3431458,8 41,6.65685425 41,5 C41,3.34314575 42.3431458,2 44,2 C45.6568542,2 47,3.34314575 47,5 C46.9981923,6.65610489 45.6561049,7.99819229 44,8 L44,8 Z"/></g></g></svg>